<?xml version="1.0" encoding="iso-8859-1"?>
<!-- Generator: Adobe Illustrator 19.0.0, SVG Export Plug-In . SVG Version: 6.00 Build 0)  -->
<svg version="1.1" id="Capa_1" xmlns="http://www.w3.org/2000/svg" xmlns:xlink="http://www.w3.org/1999/xlink" x="0px" y="0px"
	 viewBox="0 0 512.002 512.002" style="enable-background:new 0 0 512.002 512.002;" xml:space="preserve">
<g>
	<g>
		<g>
			<path d="M456.697,176.973c-26.603-26.75-59.817-44.605-96.021-52.073c8.402-6.828,15.245-13.422,20.101-18.462
				c3.65-3.786,4.775-9.199,2.938-14.126c-1.842-4.936-6.246-8.294-11.496-8.765c-13.319-1.194-33.65-2.346-53.684-0.906
				c5.648-10.072,11.606-23.082,16.677-40.478c1.852-6.35,1.118-13.04-2.063-18.839c-3.182-5.8-8.43-10.012-14.775-11.861
				c-6.349-1.854-13.039-1.123-18.84,2.06c-5.799,3.182-10.013,8.431-11.864,14.78c-3.898,13.371-8.36,23.155-12.932,31.135
				c-2.367-4.707-4.796-9.039-7.021-12.762c-2.488-4.164-6.868-6.65-11.717-6.65c-4.849,0-9.229,2.486-11.716,6.649
				c-6.354,10.631-14.383,26.161-17.845,41.539c-9.118-2.794-20.216-4.67-33.055-5.585c-4.133-0.302-7.72,2.815-8.015,6.948
				c-0.294,4.132,2.816,7.72,6.948,8.015c13.09,0.933,24.003,2.901,32.438,5.852c3.316,1.159,6.966,0.809,10.004-0.965
				c3.037-1.772,5.136-4.773,5.757-8.23c2.498-13.889,10.323-29.032,15.482-37.91c5.159,8.88,12.985,24.026,15.482,37.911
				c0.622,3.459,2.722,6.459,5.759,8.23c3.039,1.772,6.685,2.124,10.003,0.963c24.127-8.439,62.371-6.692,80.581-5.216
				c-6.586,6.632-16.18,15.391-27.925,23.57c-5.795-0.544-11.643-0.841-17.536-0.861c-12.136-0.062-24.243,1.064-36.053,3.29
				c-20.112,3.79-40.509,3.787-60.621,0c-11.813-2.226-23.955-3.349-36.063-3.29c-5.891,0.021-11.736,0.317-17.528,0.861
				c-11.744-8.178-21.338-16.939-27.927-23.571c4.501-0.368,9.043-0.659,13.542-0.869c4.138-0.193,7.335-3.704,7.143-7.842
				c-0.192-4.139-3.704-7.301-7.842-7.143c-5.73,0.268-11.529,0.663-17.234,1.175c-5.249,0.471-9.653,3.829-11.495,8.764
				c-1.838,4.927-0.714,10.34,2.936,14.127c4.858,5.04,11.702,11.634,20.103,18.462c-36.207,7.468-69.424,25.326-96.028,52.08
				C19.537,212.942-0.101,260.759,0,311.626c0.102,50.751,19.941,98.448,55.865,134.305c35.929,35.861,83.673,55.611,134.438,55.611
				c10.512,0,21.062-0.867,31.355-2.577c22.788-3.784,45.898-3.786,68.685,0c10.294,1.71,20.844,2.577,31.355,2.577
				c36.428,0,71.832-10.326,102.386-29.863c3.49-2.231,4.51-6.869,2.278-10.358c-2.23-3.49-6.87-4.512-10.358-2.278
				c-28.137,17.99-60.747,27.5-94.306,27.5c-9.691,0-19.413-0.799-28.897-2.374c-24.417-4.057-49.18-4.057-73.601,0
				c-9.483,1.575-19.205,2.374-28.896,2.374c-46.763,0-90.744-18.193-123.841-51.228C33.369,402.283,15.094,358.346,15,311.596
				c-0.094-46.864,17.995-90.915,50.933-124.039c28.514-28.675,65.279-46.253,105.041-50.568c0.028-0.003,0.056-0.006,0.084-0.01
				c6.144-0.664,12.356-1.021,18.624-1.043c11.135-0.066,22.352,0.981,33.233,3.03c21.955,4.137,44.22,4.137,66.175,0
				c10.681-2.012,21.648-3.031,32.611-3.031c0.203,0,0.408,0,0.612,0.001c6.27,0.021,12.485,0.379,18.631,1.043
				c0.027,0.003,0.055,0.006,0.082,0.009c39.758,4.314,76.521,21.891,105.035,50.562c32.94,33.121,51.03,77.171,50.94,124.034
				c-0.094,48.154-19.314,93.017-54.118,126.323c-2.992,2.864-3.097,7.611-0.233,10.605c2.864,2.992,7.611,3.097,10.604,0.233
				c37.782-36.156,58.646-84.857,58.747-137.132C512.099,260.75,492.458,212.933,456.697,176.973z M285.56,88.215
				c-0.909-4.039-2.139-8.087-3.565-12.056c7.007-10.454,14.141-23.304,20.075-43.656c0.73-2.504,2.392-4.574,4.679-5.829
				s4.922-1.541,7.424-0.81c2.503,0.729,4.571,2.39,5.825,4.676c1.254,2.286,1.543,4.924,0.813,7.427
				c-6.496,22.284-14.53,36.723-21.197,46.944C294.715,85.774,289.987,86.859,285.56,88.215z"/>
			<path d="M146.153,266.292c0,4.143,3.357,7.5,7.5,7.5s7.5-3.357,7.5-7.5c0-6.183,5.029-11.212,11.212-11.212
				c6.183,0,11.213,5.029,11.213,11.212c0,4.143,3.357,7.5,7.5,7.5s7.5-3.357,7.5-7.5c0-14.453-11.759-26.212-26.213-26.212
				C157.911,240.08,146.153,251.839,146.153,266.292z"/>
			<path d="M313.423,266.292c0,4.143,3.357,7.5,7.5,7.5s7.5-3.357,7.5-7.5c0-6.183,5.03-11.212,11.213-11.212
				c6.183,0,11.212,5.029,11.212,11.212c0,4.143,3.357,7.5,7.5,7.5s7.5-3.357,7.5-7.5c0-14.453-11.759-26.212-26.212-26.212
				C325.182,240.08,313.423,251.839,313.423,266.292z"/>
			<path d="M270.197,283.236c-3.584,4.111-8.759,6.47-14.196,6.47c-5.437,0-10.612-2.358-14.196-6.47
				c-2.721-3.124-7.459-3.448-10.581-0.725c-3.123,2.722-3.447,7.459-0.726,10.581c6.433,7.381,15.729,11.614,25.503,11.614
				c9.774,0,19.07-4.233,25.503-11.614c2.722-3.122,2.397-7.859-0.726-10.581C277.655,279.788,272.917,280.113,270.197,283.236z"/>
		</g>
	</g>
</g>
<g>
</g>
<g>
</g>
<g>
</g>
<g>
</g>
<g>
</g>
<g>
</g>
<g>
</g>
<g>
</g>
<g>
</g>
<g>
</g>
<g>
</g>
<g>
</g>
<g>
</g>
<g>
</g>
<g>
</g>
</svg>
